<svg width="142" height="49" viewBox="0 0 142 49" fill="none" xmlns="http://www.w3.org/2000/svg">
<path d="M137.801 13.445C137.848 15.7079 135.727 17.1693 132.003 17.4993C128.986 17.7821 126.298 17.9236 124.036 17.9236C123.093 17.9236 122.244 17.9236 121.49 17.8764L118.661 17.4993C118.284 17.4993 118.001 17.735 117.954 18.1121C117.907 18.4421 118.096 18.7721 118.426 18.8664L121.301 19.2436C124.13 19.7621 125.78 20.6579 125.874 21.695C125.921 22.8264 123.894 24.2879 120.311 25.6079L114.466 27.305C114.136 27.4464 113.947 27.8236 114.041 28.1536C114.183 28.4836 114.513 28.7193 114.89 28.625L120.736 26.9279C123.847 26.1736 126.676 25.7964 129.033 25.7964C132.851 25.7964 135.397 26.7393 136.623 28.6721C138.178 31.1236 138.178 34.235 136.528 37.205C134.03 41.7779 128.467 44.7479 122.386 44.7479L120.971 44.7007C116.823 44.4179 113.664 43.0036 111.59 40.505C108.808 37.1107 107.866 31.6893 108.761 23.9107C109.704 15.425 114.748 5.57214 125.78 5.57214C126.016 5.57214 126.251 5.57214 126.534 5.57214C132.898 5.855 137.707 9.95643 137.801 13.445Z" fill="#FF5943"/>
<path d="M105.64 28.2478C106.818 29.5678 106.724 32.2078 105.404 35.1778C103.282 39.9393 98.191 45.0307 91.9681 45.0307H91.8267C84.5667 44.9364 83.2938 36.875 83.1996 32.0193C83.2467 30.7464 83.2467 29.8507 83.2467 29.8507C83.1996 29.4735 82.9167 29.1907 82.5395 29.1907C82.1624 29.1907 81.8796 29.4264 81.8324 29.8035C81.8324 29.8507 81.7853 30.6993 81.7853 32.0193C81.5967 35.4607 80.5596 43.3335 74.9967 43.3335C74.7138 43.3335 74.431 43.3335 74.1481 43.2864C68.9624 42.6264 68.9153 34.7064 69.1038 31.3121C69.811 20.5164 75.751 6.60925 81.1253 6.60925C81.361 6.60925 81.5967 6.60925 81.8324 6.6564C83.671 7.08068 84.9438 8.02354 85.651 9.48497C88.0553 14.3878 83.8124 23.4864 83.7653 23.5807C83.5767 23.9578 83.7181 24.335 84.0481 24.5235C84.3781 24.665 84.8024 24.5707 84.991 24.2407C87.5367 19.6207 95.3624 7.69354 100.407 7.69354C101.538 7.69354 102.481 8.35354 103.282 9.67354C104.178 11.135 104.32 12.5493 103.848 14.0107C102.198 18.9135 93.9481 23.0621 89.0453 24.9007L85.4153 26.2678C85.0853 26.4564 84.991 26.8335 85.1324 27.1635C85.2738 27.4935 85.6038 27.635 85.981 27.5407L89.4695 26.2207C91.4967 25.5607 93.901 25.4193 96.1638 25.4193C100.595 25.4193 104.037 26.4564 105.64 28.2478Z" fill="#FF5943"/>
<path d="M68.5344 19.6207C69.383 29.3792 65.9887 36.9221 62.5002 40.7407C60.7559 42.6735 58.7759 43.805 57.3616 43.7578C56.4659 43.7107 55.8059 43.3807 55.2402 42.7678C53.7316 40.9292 54.0616 37.3935 54.0616 37.3464C54.0616 37.0164 53.873 36.7335 53.5902 36.6392C53.4959 36.5921 53.4487 36.5921 53.3544 36.5921C53.1187 36.5921 52.883 36.7335 52.7416 36.9692C52.7416 37.0164 50.0073 41.8721 45.7644 43.0035C39.8244 44.7007 36.1473 40.9292 35.4401 34.895C34.6859 28.2007 36.713 14.5292 41.4273 9.24925C42.7944 7.74068 44.2087 7.12782 45.6702 7.31639C51.563 8.2121 49.913 24.9007 49.2059 29.945C48.923 31.8307 48.7344 33.0564 48.7344 33.0564C48.6873 33.4335 48.923 33.7635 49.3001 33.8578C49.6773 33.905 50.0073 33.6221 50.1016 33.2921C50.1016 33.245 50.243 32.0192 50.5259 30.1807C51.233 25.7492 52.7887 17.6878 55.0044 13.775C56.4187 11.2292 59.2944 9.34353 61.8402 9.34353C65.4702 9.34353 67.9216 13.0678 68.5344 19.6207Z" fill="#FF5943"/>
<path d="M30.8271 27.1635C32.3828 28.8135 33.2785 31.5478 33.2314 34.6121C33.09 39.8921 28.7057 43.4278 22.2943 43.4278C18.9471 43.4278 15.4114 42.4378 12.1585 40.505C5.5114 36.6392 2.11712 23.345 3.5314 14.0107C4.00283 10.8521 5.5114 5.43067 10.1314 4.34638C11.2628 4.11067 12.3471 3.96924 13.3371 3.96924C15.8828 3.96924 17.7685 4.81781 19.0885 6.60924C24.18 13.445 19.0885 30.8407 19.0414 31.0292C18.9471 31.3592 19.1357 31.7364 19.4185 31.8778C19.7485 32.0192 20.1257 31.8778 20.3143 31.595C22.6243 27.8235 25.2171 25.7492 27.6214 25.7492C28.8 25.7492 29.8843 26.2207 30.8271 27.1635Z" fill="#FF5943"/>
<path fill-rule="evenodd" clip-rule="evenodd" d="M141.015 13.3681L141.015 13.378C141.064 15.7143 139.914 17.6087 138.153 18.8346C136.529 19.9659 134.449 20.5085 132.295 20.7003C131.159 20.8067 130.063 20.8941 129.013 20.962C129.04 21.1047 129.061 21.252 129.075 21.404L129.082 21.4825L129.086 21.5612C129.101 21.9233 129.069 22.2643 129.003 22.5822C129.013 22.5821 129.023 22.5821 129.033 22.5821C133.167 22.5821 137.198 23.5777 139.337 26.9507C141.618 30.545 141.467 34.9265 139.344 38.7555C136.176 44.5446 129.404 47.9621 122.386 47.9621H122.332L120.808 47.9113L120.753 47.9075C115.985 47.5825 111.899 45.9098 109.117 42.5581L109.11 42.5502L109.104 42.5423C107.323 40.3691 106.216 37.6871 105.659 34.5694C106.731 31.8506 106.737 29.477 105.64 28.2478C105.517 28.1114 105.385 27.9792 105.242 27.8516C105.286 26.4713 105.396 25.036 105.567 23.5494C106.087 18.8808 107.741 13.6862 110.956 9.57829C114.249 5.37065 119.161 2.35785 125.78 2.35785H126.606L126.677 2.36102C130.498 2.53083 133.911 3.84543 136.439 5.72866C138.859 7.53091 140.93 10.2371 141.014 13.3582L141.015 13.3681ZM108.761 23.9107C107.866 31.6893 108.808 37.1107 111.59 40.505C113.664 43.0036 116.823 44.4178 120.971 44.7007L122.386 44.7478C128.467 44.7478 134.03 41.7779 136.528 37.205C138.178 34.235 138.178 31.1236 136.623 28.6721C135.397 26.7393 132.851 25.7964 129.033 25.7964C128.303 25.7964 127.528 25.8325 126.714 25.9048C124.914 26.0646 122.92 26.401 120.793 26.9141C120.774 26.9187 120.755 26.9232 120.736 26.9278L114.89 28.625C114.877 28.6282 114.864 28.6311 114.851 28.6335C114.49 28.703 114.178 28.4723 114.041 28.1536C113.947 27.8236 114.136 27.4464 114.466 27.305L120.311 25.6078C120.324 25.6033 120.336 25.5987 120.348 25.5942C120.368 25.5869 120.387 25.5797 120.407 25.5724C122.839 24.6676 124.541 23.6985 125.347 22.8161C125.708 22.4204 125.889 22.0422 125.874 21.695C125.856 21.4965 125.781 21.3032 125.652 21.1168C125.367 20.7062 124.819 20.3288 124.036 20.0021C123.338 19.7112 122.454 19.4605 121.403 19.2625C121.371 19.2565 121.34 19.2506 121.307 19.2447C121.305 19.2443 121.303 19.2439 121.301 19.2436L118.426 18.8664C118.096 18.7721 117.907 18.4421 117.954 18.1121C117.999 17.7541 118.256 17.5236 118.605 17.5011C118.623 17.4999 118.642 17.4993 118.661 17.4993L121.49 17.8764C121.51 17.8777 121.531 17.8789 121.551 17.8801C122.29 17.9236 123.118 17.9236 124.036 17.9236C124.904 17.9236 125.835 17.9027 126.823 17.8611C128.409 17.7942 130.143 17.6736 132.003 17.4993C135.727 17.1693 137.848 15.7078 137.801 13.445C137.707 9.95642 132.898 5.85499 126.534 5.57213H125.78C114.748 5.57213 109.704 15.425 108.761 23.9107Z" fill="white"/>
<path fill-rule="evenodd" clip-rule="evenodd" d="M108.035 26.1046L108.037 26.1071C108.212 26.3025 108.369 26.5053 108.512 26.7139C108.322 29.8446 108.48 32.5369 108.986 34.8179C108.802 35.3753 108.586 35.9321 108.341 36.4833L108.34 36.486C105.933 41.8891 99.9435 48.245 91.9681 48.245H91.8058L91.7849 48.2447C89.3352 48.2129 87.2316 47.4932 85.5171 46.2245C84.0697 45.1534 83.0213 43.7826 82.2602 42.3616C80.8471 44.5671 78.5596 46.5478 74.9967 46.5478C74.9824 46.5478 74.967 46.5479 74.9507 46.5479C74.7016 46.5483 74.2148 46.5491 73.6873 46.4678C69.1081 45.8562 67.2297 41.9859 66.4967 39.1216C66.1874 37.9132 66.0137 36.6633 65.9231 35.486C66.5286 34.1979 67.0683 32.7725 67.5055 31.2233C67.5069 31.2181 67.5084 31.2129 67.5099 31.2077C68.4487 27.8738 68.9124 23.967 68.5344 19.6207C68.5041 19.2968 68.4694 18.9799 68.4302 18.6699C69.0286 16.8741 69.7093 15.1487 70.45 13.5565C71.6492 10.9787 73.0765 8.59542 74.6887 6.80209C76.215 5.10415 78.4005 3.39499 81.1253 3.39499C81.1373 3.39499 81.1508 3.39494 81.1658 3.3949C81.3828 3.39422 81.903 3.3926 82.4628 3.50456L82.5091 3.51382L82.5552 3.52445C85.1668 4.12714 87.3369 5.59628 88.5404 8.07682C89.1387 9.29965 89.4322 10.6051 89.545 11.87C90.9952 10.1218 92.5889 8.42881 94.2157 7.12283C95.8315 5.82574 98.0014 4.47927 100.407 4.47927C103.074 4.47927 104.896 6.1408 106.026 7.99867C107.401 10.2446 107.671 12.6297 106.907 14.9975L106.901 15.0168L106.895 15.0359C105.847 18.1486 103.179 20.6624 100.53 22.5438C101.353 22.6807 102.14 22.8599 102.884 23.0824C104.829 23.6646 106.7 24.6127 108.035 26.1046ZM95.7606 25.4208C95.8954 25.4198 96.0299 25.4193 96.1638 25.4193C100.595 25.4193 104.037 26.4564 105.64 28.2478C106.818 29.5678 106.724 32.2078 105.404 35.1778C103.282 39.9393 98.191 45.0307 91.9681 45.0307H91.8267C87.279 44.9716 85.0806 41.7865 84.0495 38.2213C83.4669 36.2068 83.2569 34.071 83.2065 32.3092C83.2045 32.2378 83.2027 32.167 83.2011 32.0969C83.2006 32.0709 83.2 32.045 83.1995 32.0193C83.2361 31.0322 83.2443 30.2719 83.2461 29.9803C83.2464 29.9388 83.2465 29.9068 83.2466 29.885C83.2467 29.8624 83.2467 29.8507 83.2467 29.8507C83.2447 29.8348 83.2423 29.8191 83.2395 29.8036C83.1795 29.4723 82.9343 29.2235 82.6063 29.1937C82.5844 29.1917 82.5621 29.1907 82.5395 29.1907C82.1624 29.1907 81.8795 29.4264 81.8324 29.8036C81.8324 29.809 81.8318 29.8248 81.8307 29.8507C81.8303 29.8608 81.8298 29.8724 81.8292 29.8855C81.8276 29.9219 81.8256 29.9698 81.8232 30.0286C81.8097 30.3624 81.7861 31.0468 81.7853 31.9669C81.7853 31.9843 81.7852 32.0017 81.7852 32.0193C81.7847 32.0284 81.7842 32.0376 81.7837 32.0468C81.7794 32.1254 81.7745 32.2062 81.7692 32.2892C81.6712 33.822 81.4078 36.078 80.7086 38.1522C79.7814 40.9028 78.0877 43.3336 74.9967 43.3336C74.7138 43.3336 74.431 43.3336 74.1481 43.2864C68.9624 42.6264 68.9153 34.7064 69.1038 31.3121C69.811 20.5164 75.751 6.60927 81.1253 6.60927C81.361 6.60927 81.5967 6.60927 81.8324 6.65642C83.671 7.0807 84.9438 8.02356 85.651 9.48499C86.6096 11.4399 86.5115 14.0619 86.0439 16.5142C85.6927 18.3561 85.1331 20.1021 84.6563 21.3979C84.2648 22.4618 83.9292 23.2221 83.8106 23.4827C83.798 23.5106 83.7878 23.5327 83.7803 23.5489C83.7765 23.5569 83.7735 23.5634 83.7711 23.5685C83.768 23.575 83.766 23.5791 83.7653 23.5807C83.5767 23.9578 83.7181 24.335 84.0481 24.5236C84.175 24.578 84.3159 24.5975 84.452 24.5821C84.555 24.5705 84.6553 24.5389 84.7446 24.4872C84.844 24.4298 84.9299 24.3476 84.991 24.2407C84.9977 24.2284 85.0045 24.2161 85.0114 24.2038C85.263 23.7482 85.565 23.2233 85.9097 22.6469C86.0027 22.4913 86.0989 22.332 86.1981 22.1693C86.9885 20.8719 87.9674 19.3589 89.0599 17.8097C92.4995 12.9315 97.0639 7.69356 100.407 7.69356C101.538 7.69356 102.481 8.35356 103.282 9.67356C104.178 11.135 104.32 12.5493 103.848 14.0107C102.77 17.2133 98.8764 20.094 94.9388 22.2194C92.8483 23.3477 90.7455 24.2631 89.0452 24.9007L85.4153 26.2678C85.1706 26.4077 85.0555 26.6511 85.07 26.9022C85.075 26.9898 85.0958 27.0782 85.1324 27.1636C85.2346 27.4021 85.4354 27.5421 85.6814 27.5658C85.6936 27.567 85.706 27.5679 85.7185 27.5685C85.7772 27.5713 85.8382 27.5676 85.9009 27.5573C85.9273 27.553 85.954 27.5474 85.981 27.5407L89.4695 26.2207C89.4905 26.2139 89.5116 26.2071 89.5326 26.2004C89.5333 26.2002 89.5339 26.2 89.5345 26.1998C91.4275 25.5961 93.6419 25.4376 95.7606 25.4208Z" fill="white"/>
<path fill-rule="evenodd" clip-rule="evenodd" d="M32.6563 37.5535C33.3039 40.1938 34.5523 42.5956 36.5604 44.2995C39.2615 46.5914 42.8163 47.1813 46.6209 46.1018C48.713 45.5376 50.4413 44.3776 51.7645 43.2005C52.0171 43.7537 52.3404 44.3012 52.7553 44.8067L52.8147 44.8792L52.8783 44.948C53.9997 46.1629 55.4407 46.8755 57.1926 46.9677L57.2235 46.9693L57.2545 46.9704C58.7982 47.0218 60.2582 46.4492 61.4255 45.7689C62.643 45.0594 63.8235 44.0706 64.8796 42.9017C66.4678 41.1615 67.9874 38.8384 69.2025 36.033C69.0007 34.2418 69.0378 32.4999 69.1038 31.3121C69.3558 27.4648 70.2724 23.2223 71.5912 19.3549C71.5935 19.348 71.5959 19.3411 71.5982 19.3342C71.6337 19.2303 71.6695 19.1267 71.7055 19.0234C71.3541 15.5937 70.5052 12.5565 69.0098 10.267C67.4005 7.80336 64.9547 6.12929 61.8401 6.12929C58.1092 6.12929 54.4489 8.58469 52.4899 11.714C52.3121 10.9032 52.0913 10.1222 51.818 9.39289C51.0103 7.23708 49.3667 4.62711 46.1532 4.13865L46.1174 4.13321L46.0815 4.12858C43.2648 3.76513 40.8777 5.06909 39.0455 7.09084L39.0375 7.09965L39.0296 7.10853C36.0749 10.4178 34.2575 15.8762 33.2335 20.8998C32.6704 23.6622 32.3043 26.5138 32.1523 29.147C32.8752 30.6731 33.2628 32.5693 33.2314 34.6121C33.2266 34.7925 33.2168 34.9709 33.2021 35.1472C33.2019 35.1506 33.2016 35.154 33.2013 35.1574C33.1297 36.0079 32.9447 36.8093 32.6563 37.5535ZM49.943 17.838C49.7815 12.6237 48.7683 7.78736 45.6701 7.31643C44.2087 7.12786 42.7944 7.74072 41.4273 9.24929C36.713 14.5293 34.6858 28.2007 35.4401 34.895C36.1473 40.9293 39.8244 44.7007 45.7644 43.0036C47.9026 42.4334 49.6576 40.9174 50.8727 39.5477C51.0679 39.3275 51.2493 39.1112 51.416 38.9031C51.9311 38.2603 52.3069 37.6969 52.5241 37.3464C52.6672 37.1155 52.7416 36.9771 52.7416 36.9693C52.883 36.7336 53.1187 36.5921 53.3544 36.5921C53.4487 36.5921 53.4958 36.5921 53.5901 36.6393C53.7553 36.6944 53.8884 36.8138 53.9705 36.9693C54.0289 37.0801 54.0616 37.2092 54.0616 37.3464C54.0616 37.3485 54.0609 37.3572 54.0599 37.372C54.056 37.425 54.0465 37.5569 54.0394 37.748C54.0237 38.1739 54.0201 38.8941 54.1187 39.6937C54.1508 39.9547 54.1939 40.2241 54.251 40.4945C54.4236 41.3125 54.7244 42.1393 55.2401 42.7679C55.8058 43.3807 56.4658 43.7107 57.3616 43.7579C58.7758 43.805 60.7558 42.6736 62.5001 40.7407C65.9887 36.9221 69.383 29.3793 68.5344 19.6207C67.9216 13.0679 65.4701 9.34358 61.8401 9.34358C59.2944 9.34358 56.4187 11.2293 55.0044 13.775C54.3299 14.9662 53.7165 16.5419 53.1696 18.2825C51.9268 22.2385 51.0274 27.0467 50.5338 30.1312C50.5331 30.1354 50.5324 30.1396 50.5317 30.1439C50.5298 30.1562 50.5278 30.1685 50.5258 30.1807C50.4897 30.4159 50.4558 30.6411 50.4242 30.855C50.238 32.1178 50.1324 32.99 50.1074 33.2281C50.1057 33.2439 50.1044 33.2569 50.1035 33.267C50.1022 33.2806 50.1016 33.289 50.1016 33.2921C50.0073 33.6221 49.6773 33.905 49.3001 33.8579C49.0044 33.7839 48.7956 33.565 48.742 33.2921C48.7272 33.217 48.7242 33.1378 48.7344 33.0564C48.7344 33.0564 48.7423 33.0054 48.7572 32.908C48.8056 32.5923 48.9282 31.7895 49.0977 30.6642C49.1305 30.4467 49.165 30.2172 49.2011 29.9769C49.2014 29.9744 49.2018 29.972 49.2022 29.9695C49.2034 29.9613 49.2046 29.9532 49.2058 29.945C49.5412 27.5528 50.0886 22.5416 49.943 17.838Z" fill="white"/>
<path fill-rule="evenodd" clip-rule="evenodd" d="M33.1334 24.9242L33.1658 24.9585C34.133 25.9843 34.8769 27.2245 35.4099 28.5867C35.2443 30.8642 35.2451 32.9598 35.4136 34.6457C35.4145 34.654 35.4153 34.6624 35.4161 34.6707C35.4238 34.7463 35.4318 34.8211 35.4401 34.895C35.5544 35.8702 35.7463 36.7863 36.0127 37.6298C35.3669 39.9619 34.0257 41.9753 32.1314 43.5024C29.5296 45.5999 26.0709 46.6421 22.2943 46.6421C18.3271 46.6421 14.2338 45.4742 10.529 43.2757C6.15569 40.7248 3.32759 35.4762 1.74502 30.2382C0.122274 24.8672 -0.433631 18.728 0.352846 13.5328C0.615208 11.7766 1.18404 9.22392 2.44447 6.87894C3.71928 4.5072 5.88392 2.04167 9.39699 1.21718L9.4363 1.20795L9.47584 1.19971C10.7423 0.935858 12.0575 0.755005 13.3371 0.755005C16.7049 0.755005 19.6378 1.94068 21.6713 4.69585C23.4511 7.0893 24.1754 10.1401 24.4366 12.9888C24.7032 15.8962 24.5187 18.9659 24.1822 21.704C24.1096 22.2953 24.029 22.8768 23.943 23.4437C25.0718 22.8809 26.3066 22.535 27.6214 22.535C29.7493 22.535 31.6264 23.4172 33.1 24.8907L33.1334 24.9242ZM3.5314 14.0107C2.11712 23.345 5.5114 36.6393 12.1585 40.505C15.4114 42.4379 18.9471 43.4279 22.2943 43.4279C28.7057 43.4279 33.09 39.8921 33.2314 34.6121C33.2785 31.5479 32.3828 28.8136 30.8271 27.1636C29.8843 26.2207 28.8 25.7493 27.6214 25.7493C26.1489 25.7493 24.6056 26.5274 23.0999 27.9969C22.6144 28.4708 22.1328 29.0165 21.6588 29.6312C21.2484 30.1633 20.8437 30.7471 20.447 31.3807C20.4381 31.3949 20.4292 31.4091 20.4204 31.4233C20.3849 31.4801 20.3496 31.5374 20.3143 31.595C20.1257 31.8779 19.7485 32.0193 19.4185 31.8779C19.1357 31.7364 18.9471 31.3593 19.0414 31.0293C19.0427 31.024 19.048 31.0051 19.057 30.9733C19.0655 30.9428 19.0775 30.9004 19.0924 30.8466C19.0973 30.8292 19.1025 30.8106 19.1079 30.7908C19.2057 30.4377 19.4021 29.7107 19.6398 28.7145C19.7959 28.0603 19.9699 27.2898 20.1453 26.4329C21.31 20.7451 22.5428 11.2469 19.0885 6.60929C17.7685 4.81786 15.8828 3.96929 13.3371 3.96929C12.3471 3.96929 11.2628 4.11072 10.1314 4.34643C5.5114 5.43072 4.00283 10.8521 3.5314 14.0107Z" fill="white"/>
</svg>
